<svg width="24" height="24" viewBox="0 0 24 24" fill="none" xmlns="http://www.w3.org/2000/svg">
<g clip-path="url(#clip0)">
<path d="M0 12C0 18.6274 5.37258 24 12 24C18.6274 24 24 18.6274 24 12C24 5.37258 18.6274 0 12 0C5.37258 0 0 5.37258 0 12Z" fill="#1877F2"/>
<path d="M18 12C18 8.70001 15.3 6.00001 12 6.00001C8.7 6.00001 6 8.70001 6 12C6 15 8.175 17.475 11.025 17.925V13.725H9.525V12H11.025V10.65C11.025 9.15001 11.925 8.32501 13.275 8.32501C13.95 8.32501 14.625 8.47501 14.625 8.47501V9.97501H13.875C13.125 9.97501 12.9 10.425 12.9 10.875V12H14.55L14.25 13.725H12.825V18C15.825 17.55 18 15 18 12Z" fill="white"/>
</g>
<defs>
<clipPath id="clip0">
<rect width="24" height="24" fill="white"/>
</clipPath>
</defs>
</svg>
